<svg width="12" height="7" viewBox="0 0 12 7" fill="none" xmlns="http://www.w3.org/2000/svg">
<path d="M5.99971 0.424975C6.13304 0.424975 6.26204 0.449976 6.38671 0.499976C6.51204 0.549976 6.61637 0.616642 6.69971 0.699976L11.2997 5.29998C11.483 5.48331 11.5747 5.71664 11.5747 5.99998C11.5747 6.28331 11.483 6.51664 11.2997 6.69998C11.1164 6.88331 10.883 6.97498 10.5997 6.97498C10.3164 6.97498 10.083 6.88331 9.89971 6.69998L5.99971 2.79997L2.09971 6.69998C1.91637 6.88331 1.68304 6.97497 1.39971 6.97497C1.11637 6.97497 0.883041 6.88331 0.699708 6.69998C0.516375 6.51664 0.424707 6.28331 0.424707 5.99998C0.424707 5.71664 0.516375 5.48331 0.699708 5.29997L5.29971 0.699975C5.39971 0.599976 5.50804 0.529309 5.62471 0.487976C5.74137 0.445976 5.86637 0.424975 5.99971 0.424975Z" fill="black"/>
</svg>
