<svg width="12" height="20" viewBox="0 0 12 20" fill="none" xmlns="http://www.w3.org/2000/svg">
<path d="M-1.22901e-07 10C-1.25753e-07 9.76084 0.0458028 9.52945 0.137406 9.30583C0.229009 9.08102 0.351146 8.89387 0.503818 8.74439L8.9313 0.493273C9.26718 0.164424 9.69466 2.74909e-08 10.2137 2.13009e-08C10.7328 1.51109e-08 11.1603 0.164424 11.4962 0.493273C11.8321 0.822122 12 1.24066 12 1.74888C12 2.2571 11.8321 2.67564 11.4962 3.00448L4.35114 10L11.4962 16.9955C11.8321 17.3244 12 17.7429 12 18.2511C12 18.7593 11.8321 19.1779 11.4962 19.5067C11.1603 19.8356 10.7328 20 10.2137 20C9.69466 20 9.26718 19.8356 8.9313 19.5067L0.503818 11.2556C0.320612 11.0762 0.191146 10.8819 0.115421 10.6726C0.0384744 10.4634 -1.20049e-07 10.2392 -1.22901e-07 10Z" fill="black"/>
</svg>
