<svg width="23" height="21" viewBox="0 0 23 21" fill="none" xmlns="http://www.w3.org/2000/svg">
<path fill-rule="evenodd" clip-rule="evenodd" d="M21.4609 3.91016L19.2909 13.1402H6.87094L4.71094 3.91016H21.4609Z" stroke="black" stroke-width="1.4" stroke-linecap="square" stroke-linejoin="round"/>
<path d="M17.3504 19.5602C18.2893 19.5602 19.0504 18.799 19.0504 17.8602C19.0504 16.9213 18.2893 16.1602 17.3504 16.1602C16.4115 16.1602 15.6504 16.9213 15.6504 17.8602C15.6504 18.799 16.4115 19.5602 17.3504 19.5602Z" stroke="black" stroke-width="1.2" stroke-linecap="square" stroke-linejoin="round"/>
<path d="M8.81914 19.5602C9.75802 19.5602 10.5191 18.799 10.5191 17.8602C10.5191 16.9213 9.75802 16.1602 8.81914 16.1602C7.88026 16.1602 7.11914 16.9213 7.11914 17.8602C7.11914 18.799 7.88026 19.5602 8.81914 19.5602Z" stroke="black" stroke-width="1.2" stroke-linecap="square" stroke-linejoin="round"/>
<path d="M1 1H4.02L5.43 6.98" stroke="black" stroke-width="1.4" stroke-linecap="square" stroke-linejoin="round"/>
</svg>
