<svg width="71" height="36" viewBox="0 0 71 36" fill="none" xmlns="http://www.w3.org/2000/svg">
<path d="M54.1156 0.402576C55.004 -0.0797042 56.2508 -0.219107 57.0214 0.495223C57.792 1.20955 57.6068 2.26849 57.0214 3.93526C57.0214 3.93526 55.7183 7.45582 54.3763 11.0889L54.0316 12.0241C52.8073 15.3403 51.6402 18.5067 51.4973 18.9189C50.2002 22.5944 53.2004 22.4879 54.9815 18.7872C55.985 16.7144 57.2708 13.283 57.2708 13.283C57.7245 11.9297 57.8613 11.1149 57.5816 10.8344C57.489 10.7365 57.6206 10.6162 57.7375 10.5547C59.7021 9.55984 61.7464 10.4924 60.626 13.4207L60.5792 13.5402C60.2441 14.387 58.2587 19.37 58.2587 19.37C57.6734 20.8073 57.7436 22.1719 58.6207 22.1719C59.2146 22.1684 59.8848 21.8385 60.6156 21.2298C62.1897 19.9276 63.4054 17.4963 63.8426 16.5075C64.0418 16.0676 64.7838 14.4121 65.3717 12.7315C65.5761 12.1557 65.6912 11.5539 65.7137 10.9435C65.6986 10.868 65.7066 10.7898 65.7365 10.7189C65.7665 10.648 65.8171 10.5878 65.8817 10.5461C66.3269 10.3089 66.8233 10.1841 67.3277 10.1824C67.5721 10.1778 67.8142 10.2307 68.0346 10.3367C68.2549 10.4427 68.4472 10.5989 68.5962 10.7928C68.9797 11.3106 69.0862 12.16 68.6854 13.2241C68.5815 13.5012 65.4168 21.8463 65.4168 21.8463V21.8688C67.184 20.8099 68.7676 20.732 69.7053 21.1294L69.7027 21.1181C70.9972 21.6783 71.4258 23.2308 70.5149 24.1997C70.4257 24.2949 70.2015 24.2724 70.2015 24.1218C70.1201 23.0369 68.0221 21.0956 64.912 23.191L64.7864 23.5243L63.8617 25.9556C61.5931 32.0322 59.1835 36.4636 55.7097 35.48C53.3823 34.822 53.6515 31.491 56.1556 28.735C57.8895 26.8856 59.7687 25.1779 61.775 23.6282C61.8338 23.4655 61.8875 23.3252 61.9378 23.1858C62.1785 22.5104 62.3629 21.9441 62.6235 21.2246L62.7612 20.7761C62.6071 20.9493 62.33 21.2722 62.1447 21.4792C61.5282 22.1719 59.9853 23.8663 57.5306 23.3901L57.3279 23.3451C55.5529 22.9052 55.0698 21.6255 55.0291 20.5077C53.1745 22.8074 51.2618 23.4741 50.0011 23.4429C48.3144 23.4014 47.0762 22.132 47.8997 19.7284C48.8157 17.0391 52.6619 6.45316 53.7831 3.27721C54.2031 1.90916 54.3598 1.04331 53.9425 0.702161C53.836 0.612979 53.9875 0.47271 54.1156 0.402576ZM61.3576 25.3201C60.4026 26.0821 56.5729 29.2424 55.5114 31.7629C55.0741 32.7993 55.1858 33.6236 55.9339 33.6964C57.631 33.8644 59.4077 30.3905 61.3265 25.4604L61.3576 25.3201ZM13.8777 4.20108C13.8024 4.48854 12.7356 7.54327 11.539 10.9106L11.3581 11.418L11.1762 11.928L10.9901 12.4509C15.0518 11.4786 22.3016 6.76227 23.1423 3.7188C23.2462 3.57939 23.3934 3.52831 23.6324 3.68849C24.061 3.97422 24.2264 4.68855 24.061 5.3492C23.3995 7.97966 18.5057 11.7054 14.2084 13.6216C14.7383 15.039 16.5307 19.0479 17.8502 21.5104C19.2901 24.211 20.8114 25.4716 23.1726 25.6119C24.4368 25.6855 25.7823 25.2249 26.5434 24.5556L26.6715 24.4343L26.6603 24.4603C26.8283 24.2837 27.1027 24.527 26.9772 24.74C26.4957 25.4579 25.8554 26.0553 25.1058 26.4858C24.3562 26.9163 23.5176 27.1683 22.6548 27.2224C17.161 27.5921 15.0578 23.8715 11.1355 14.6727C10.8186 14.7818 10.4351 14.9221 10.0489 15.0623C9.98394 15.2243 8.25656 19.9475 8.20461 20.1042C7.38725 22.5892 7.33443 23.9503 7.89464 24.3426C8.02019 24.4205 7.95871 24.6309 7.74051 24.701C5.5525 25.3902 3.53853 24.0984 4.65894 20.8549C5.6642 17.9837 9.58565 6.84539 10.6455 3.86166C11.0152 2.74125 10.816 2.02172 10.2195 1.865C7.36473 1.10825 0.759138 7.14238 1.70638 12.7141C1.87089 13.6839 2.55492 14.2268 2.89953 14.1541C2.9183 14.1503 2.93772 14.1513 2.95602 14.1569C2.97432 14.1626 2.99093 14.1727 3.00434 14.1863C3.01775 14.2 3.02754 14.2168 3.03282 14.2352C3.0381 14.2536 3.03872 14.273 3.0346 14.2917C2.93864 14.6204 2.71744 14.8982 2.41864 15.0653C2.11985 15.2324 1.76736 15.2755 1.4371 15.1853C0.424052 14.9636 0.0924304 13.877 0.0370157 13.3168C-0.520594 7.5502 5.32305 0.632027 10.7268 0.0692226C12.7858 -0.147241 14.7176 0.900442 13.8777 4.20108ZM34.6928 12.7843L34.6409 12.9635L32.1905 20.0289C31.9273 20.7649 32.1039 21.5329 32.6243 21.6757C34.1456 22.0931 36.1119 19.8185 37.067 17.5776C37.5261 16.4897 37.9523 15.3881 38.345 14.2744C38.8489 12.8518 39.3026 11.5184 39.0229 10.8907C38.958 10.7452 39.0619 10.669 39.216 10.5876C39.6533 10.3668 41.1434 9.87328 41.9357 10.6465C42.5374 11.2301 42.463 12.1799 41.9097 13.6224L41.8266 13.832L42.0171 13.5956C44.3575 10.7383 46.1662 9.87934 47.6997 10.4811L47.8269 10.5348C49.8885 11.4647 48.8192 15.0502 45.9948 15.2797C45.8216 15.2944 45.6866 15.1706 45.858 14.9273C46.2 14.4034 46.1662 13.2744 45.1688 13.1765C44.1713 13.0787 42.7184 14.2216 41.6725 15.639C40.7339 16.8945 39.7676 19.0254 38.7961 21.9364C38.5606 22.6446 38.6723 22.8126 38.7008 22.8602C38.7075 22.8727 38.711 22.8867 38.711 22.9009C38.711 22.9151 38.7075 22.9291 38.7008 22.9416C38.577 23.1771 37.8653 23.4577 37.1769 23.4577C35.7699 23.4516 35.1933 22.6394 35.4738 21.3476C33.8737 22.8749 32.2606 23.6109 30.8372 23.4828C30.524 23.4556 30.2204 23.3611 29.947 23.2059C29.6737 23.0506 29.437 22.8382 29.2533 22.5832C29.0695 22.3282 28.9429 22.0365 28.8821 21.728C28.8213 21.4196 28.8278 21.1017 28.9011 20.796C27.6664 22.3624 25.8343 23.6256 23.9683 23.4516C22.1024 23.2784 20.9379 22.0091 21.5422 19.3059C22.0531 17.0564 24.4337 11.418 27.2742 9.52434C28.573 8.65848 30.0151 8.81262 30.3047 8.65848C31.6034 9.09141 31.7966 9.48304 31.3497 10.7771C29.4388 10.8231 28.14 12.1219 26.9772 13.5956C25.3309 15.315 24.3786 18.1995 24.2437 18.6158C23.6056 20.596 24.5597 21.8273 25.4645 21.8766C26.3694 21.9286 27.5686 21.0454 28.4258 19.7094C29.9497 17.524 30.6605 14.787 31.3497 12.8847C31.5264 12.3998 32.0364 11.256 31.3497 10.7771C31.1618 10.8599 30.1246 8.75719 30.3047 8.65848C32.0364 8.22556 35.4574 9.97199 34.6928 12.7843Z" fill="#5F0080"/>
</svg>
